<?xml version="1.0" standalone="no"?>
<!DOCTYPE svg PUBLIC "-//W3C//DTD SVG 20010904//EN"
 "http://www.w3.org/TR/2001/REC-SVG-20010904/DTD/svg10.dtd">
<svg version="1.0" xmlns="http://www.w3.org/2000/svg"
 width="577.000000pt" height="433.000000pt" viewBox="0 0 577.000000 433.000000"
 preserveAspectRatio="xMidYMid meet">

<g transform="translate(0.000000,433.000000) scale(0.100000,-0.100000)"
fill="#000000" stroke="none">
<path d="M2682 2534 c2 -5 10 -22 18 -37 12 -25 12 -37 -4 -97 -16 -63 -16
-72 -2 -115 20 -57 20 -82 2 -117 -13 -24 -13 -28 -1 -28 8 0 17 5 20 10 9 15
76 12 125 -5 37 -13 47 -13 91 1 47 16 86 15 138 -2 24 -7 24 -7 8 17 -21 29
-22 75 -2 132 13 37 13 49 0 91 -19 63 -19 101 1 131 19 29 13 31 -27 8 -28
-16 -33 -16 -97 0 -64 17 -71 17 -134 0 -58 -15 -69 -15 -94 -3 -45 23 -47 23
-42 14z m340 -166 c0 -62 2 -125 3 -140 l2 -28 -143 0 -144 0 0 140 0 140 140
0 140 0 2 -112z"/>
<path d="M2760 2340 l0 -120 123 0 124 0 2 120 2 120 -125 0 -126 0 0 -120z"/>
</g>
</svg>
